#!OML:ASF F:\VICON\USERDATA\INSTALL\rory3\rory3.ASF
:FULLY-SPECIFIED
:DEGREES
263
root 1.04174 18.0127 16.2429 -8.02029 -3.10083 -1.36915
lowerback 15.3986 0.867318 1.68294
upperback -0.145089 1.63895 2.04562
thorax -8.8346 0.763928 0.872644
lowerneck -10.5339 -0.903253 -2.60768
upperneck 29.4712 -0.538934 -0.56762
head 11.2936 -0.599581 0.175956
rclavicle -2.19906e-015 -1.31198e-014
rhumerus -33.3113 -10.91 -76.5184
rradius 29.8756
rwrist 1.06599
rhand -13.6006 13.4063
rfingers 7.12502
rthumb 12.5142 -16.199
lclavicle -2.19906e-015 -1.31198e-014
lhumerus -42.583 5.50869 86.4864
lradius 37.0616
lwrist 5.31149
lhand -12.4093 51.8727
lfingers 7.12502
lthumb 13.6625 81.4042
rfemur 2.10633 2.76867 24.6047
rtibia 57.9318
rfoot 19.2053 -4.56119
rtoes 6.64876
lfemur -14.1236 -3.74699 -22.6828
ltibia 28.8511
lfoot -3.39489 2.56134
ltoes 0.827714
264
root 1.06217 18.0229 16.4195 -8.21418 -3.05506 -0.482752
lowerback 15.3725 0.89307 0.82337
upperback -0.093466 1.49973 1.85879
thorax -8.7788 0.730711 1.19066
lowerneck -10.3697 -0.826151 -2.57552
upperneck 29.3269 -0.409863 -0.681834
head 11.2031 -0.549968 0.145843
rclavicle 8.94531e-016 1.23246e-014
rhumerus -33.5993 -10.8262 -76.3899
rradius 29.6227
rwrist 1.70851
rhand -13.3297 13.234
rfingers 7.12502
rthumb 12.7753 -16.3552
lclavicle 8.94531e-016 1.23246e-014
lhumerus -42.5113 5.4177 86.5529
lradius 36.8982
lwrist 5.25733
lhand -12.3481 51.372
lfingers 7.12502
lthumb 13.7215 80.8996
rfemur 0.83863 2.50626 23.2944
rtibia 60.3205
rfoot 18.4355 -5.02625
rtoes 6.05591
lfemur -13.2 -3.80739 -23.9052
ltibia 28.8018
lfoot -3.93138 2.94143
ltoes -0.0486998
265
root 1.07449 18.0205 16.5661 -8.3438 -3.15713 -0.234025
lowerback 15.5968 0.94438 0.589375
upperback -0.157167 1.5283 1.82717
thorax -8.98107 0.7537 1.28025
lowerneck -9.89767 -0.776524 -2.59938
upperneck 29.2013 -0.339285 -0.722181
head 11.0592 -0.523029 0.146132
rclavicle 2.18166e-014 3.18055e-015
rhumerus -33.9041 -10.5312 -76.4442
rradius 29.5233
rwrist 2.04107
rhand -13.2385 11.8611
rfingers 7.12502
rthumb 12.8633 -17.7225
lclavicle 2.18166e-014 3.18055e-015
lhumerus -42.5002 4.93205 86.7689
lradius 36.6504
lwrist 5.41585
lhand -12.678 50.8781
lfingers 7.12502
lthumb 13.4036 80.4269
rfemur -0.717299 2.32197 22.8454
rtibia 62.6416
rfoot 17.5265 -5.92592
rtoes 5.89932
lfemur -12.4217 -3.79326 -24.3281
ltibia 28.6723
lfoot -4.18136 3.14272
ltoes -0.970892
266
root 1.08995 18.0184 16.7245 -8.55025 -2.95119 0.215484
lowerback 15.3769 0.892749 0.194369
upperback 0.272529 1.36457 1.69577
thorax -8.39106 0.687708 1.40306
lowerneck -10.4486 -0.724457 -2.49811
upperneck 29.1336 -0.243189 -0.809003
head 11.1427 -0.479186 0.107198
rclavicle 4.65902e-015 1.11319e-014
rhumerus -33.2301 -10.375 -76.8309
rradius 29.2886
rwrist 2.18264
rhand -13.3577 11.0009
rfingers 7.12502
rthumb 12.7484 -18.5899
lclavicle 4.65902e-015 1.11319e-014
lhumerus -41.7603 4.47753 86.9756
lradius 36.5764
lwrist 5.46295
lhand -12.7889 51.1974
lfingers 7.12502
lthumb 13.2967 80.7532
rfemur -2.07539 1.78181 22.0467
rtibia 64.7765
rfoot 16.2797 -6.56471
rtoes 7.31643
lfemur -11.5316 -3.89753 -25.0449
ltibia 28.5663
lfoot -4.53865 3.3047
ltoes -1.58414
267
root 1.10811 18.0263 16.8786 -8.66287 -2.46131 0.82535
lowerback 15.1576 0.779526 -0.352921
upperback 0.54108 1.09818 1.5283
thorax -7.97683 0.57497 1.59502
lowerneck -10.5638 -0.736165 -2.44834
upperneck 28.9457 -0.230354 -0.945054
head 11.0937 -0.482652 0.0508238
rclavicle -8.58501e-015 3.18055e-015
rhumerus -32.9837 -10.1791 -77.063
rradius 29.0647
rwrist 2.48155
rhand -13.7105 11.245
rfingers 7.12502
rthumb 12.4082 -18.3667
lclavicle -8.58501e-015 3.18055e-015
lhumerus -41.2973 4.25926 87.0672
lradius 36.6501
lwrist 5.07915
lhand -12.6286 51.466
lfingers 7.12502
lthumb 13.4512 81.0116
rfemur -3.46804 0.836734 20.9254
rtibia 66.7159
rfoot 14.5066 -6.94655
rtoes 8.21313
lfemur -10.887 -4.06085 -25.9721
ltibia 28.5567
lfoot -4.983 3.19218
ltoes -1.93256
268
root 1.10528 18.0323 17.0299 -8.99596 -2.50031 0.541268
lowerback 15.4102 0.751137 -0.27934
upperback 0.579405 1.08862 1.7033
thorax -8.07926 0.571198 1.74134
lowerneck -9.76358 -0.697062 -2.43004
upperneck 28.5665 -0.165981 -1.10395
head 10.7892 -0.463833 0.00223273
rclavicle -1.20886e-014 -8.74653e-015
rhumerus -33.2457 -10.2016 -76.9625
rradius 28.4911
rwrist 3.51242
rhand -14.2586 12.2936
rfingers 7.12502
rthumb 11.8797 -17.3494
lclavicle -1.20886e-014 -8.74653e-015
lhumerus -41.296 4.04613 87.155
lradius 36.6597
lwrist 4.84863
lhand -12.7388 51.154
lfingers 7.12502
lthumb 13.345 80.7067
rfemur -4.61668 0.426225 21.2023
rtibia 68.4005
rfoot 12.4911 -7.77183
rtoes 7.52762
lfemur -10.0472 -3.936 -25.7151
ltibia 28.6141
lfoot -5.62753 3.12125
ltoes -1.529
269
root 1.11121 18.0331 17.1804 -9.29895 -2.3557 0.613366
lowerback 16.4074 0.664312 -0.43678
upperback 0.208888 0.957668 1.7259
thorax -9.04194 0.521197 1.88249
lowerneck -9.41503 -0.595131 -2.40647
upperneck 28.8464 -0.0197793 -1.15321
head 10.8247 -0.402831 -0.00217074
rclavicle -9.0447e-015 7.95139e-015
rhumerus -33.9487 -9.97778 -76.9096
rradius 28.1251
rwrist 4.20657
rhand -14.6598 12.8829
rfingers 7.12502
rthumb 11.4928 -16.782
lclavicle -9.0447e-015 7.95139e-015
lhumerus -41.7325 3.90058 87.0923
lradius 36.5796
lwrist 4.47018
lhand -12.5293 51.0488
lfingers 7.12502
lthumb 13.5469 80.5881
rfemur -5.74012 -0.13943 20.9418
rtibia 69.9241
rfoot 9.81189 -8.45248
rtoes 3.42274
lfemur -9.21708 -3.90435 -25.9245
ltibia 28.7262
lfoot -6.24828 3.01948
ltoes -1.33722
270
root 1.11591 18.0304 17.3219 -9.48675 -2.03247 0.756562
lowerback 16.2613 0.497924 -0.730393
upperback 0.624265 0.67978 1.77281
thorax -8.50001 0.39481 2.16407
lowerneck -9.96797 -0.510007 -2.31108
upperneck 28.7719 0.161738 -1.37389
head 10.9063 -0.337346 -0.0778564
rclavicle -1.01007e-014 -7.15625e-015
rhumerus -33.2722 -9.96929 -77.05
rradius 27.9223
rwrist 4.59002
rhand -14.6443 12.9112
rfingers 7.12502
rthumb 11.5078 -16.7529
lclavicle -1.01007e-014 -7.15625e-015
lhumerus -40.7618 4.0761 87.0879
lradius 36.3796
lwrist 3.82809
lhand -12.0043 51.1946
lfingers 7.12502
lthumb 14.0529 80.6995
rfemur -6.97619 -0.863557 20.5652
rtibia 71.2791
rfoot 8.77263 -9.27276
rtoes 4.99304
lfemur -8.61143 -4.00686 -26.2338
ltibia 28.956
lfoot -6.68893 2.95986
ltoes -1.25604
271
root 1.11322 18.0256 17.4569 -9.67884 -1.80576 0.78242
lowerback 16.4127 0.377894 -0.962786
upperback 0.814602 0.481405 1.84444
thorax -8.37164 0.30726 2.41928
lowerneck -10.1525 -0.391716 -2.15358
upperneck 28.8516 0.380188 -1.63815
head 10.9736 -0.254274 -0.174999
rclavicle -4.05024e-015 -1.03368e-014
rhumerus -33.0826 -10.1472 -77.0798
rradius 27.9574
rwrist 5.01307
rhand -14.3865 12.5664
rfingers 7.12502
rthumb 11.7564 -17.0837
lclavicle -4.05024e-015 -1.03368e-014
lhumerus -40.3077 4.2482 86.9933
lradius 36.4677
lwrist 3.3681
lhand -11.6834 51.3206
lfingers 7.12502
lthumb 14.3621 80.8038
rfemur -8.23784 -1.43949 20.4307
rtibia 72.456
rfoot 7.29258 -10.012
rtoes 4.84425
lfemur -7.96989 -4.03215 -26.3512
ltibia 29.0475
lfoot -7.10653 2.85616
ltoes -0.994583
